<svg xmlns="http://www.w3.org/2000/svg" xmlns:xlink="http://www.w3.org/1999/xlink" xmlns:lucid="lucid" width="1303" height="1482"><g transform="translate(-18.5 -479.5)" lucid:page-tab-id="0_0"><path d="M0 0h1500v2000H0z" fill="#fff"/><path d="M40 786a6 6 0 0 1 6-6h1248a6 6 0 0 1 6 6v1128a6 6 0 0 1-6 6H46a6 6 0 0 1-6-6z" stroke="#8c4fff" stroke-width="3" fill="#fff" fill-opacity="0"/><path d="M40 780h56v56H40v-56z" stroke="#000" stroke-opacity="0" fill="#8c4fff"/><path d="M83.37 809.45l-4.12-1.77v14.68c3.57-.48 4.12-4.16 4.12-4.3v-8.6zm-5.53 12.95v-14.72l-4.23 1.77v8.68c0 .07.63 3.86 4.24 4.27zm.43-16.45c.2-.07.4-.07.55.04l5.53 2.34c.27.1.43.37.43.63v9.16c-.24 2.02-1.88 5.7-6.35 5.7-4.32 0-5.96-3.68-6.24-5.6v-9.26c0-.26.2-.52.43-.63l5.64-2.4zm7.92.92l-7.66-3.38-7.76 3.26v9.97c0 .07-.04 4 2.36 6.48 1.25 1.33 3.05 2 5.3 2 2.26 0 4.03-.67 5.36-2 2.43-2.46 2.4-6.43 2.4-6.47v-9.86zm-1.42 17.3c-1.57 1.6-3.7 2.42-6.35 2.42-2.63 0-4.75-.82-6.3-2.44-2.84-2.87-2.72-7.28-2.72-7.46v-10.42c0-.3.17-.55.44-.62l8.43-3.57c.2-.1.4-.1.55 0l8.35 3.67c.27.1.43.37.43.62v10.33c0 .2.04 4.56-2.82 7.43zm-29.4-10.23h11.2v1.4H55.4c-3.92 0-6.75-2.84-6.98-7.03v-.5c0-3.54 1.84-5.93 5.33-7 0-.3-.04-.66-.04-.88 0-4.1 2.23-7.65 5.64-9.05 4.62-1.88 9.84-1.25 12.74 1.54 1.06 1.04 1.88 2.18 2.47 3.5.86-.62 1.96-.9 3.3-.84 2.5.1 4.42 2.4 4.8 5.6 2.1.18 3.5 1.25 4.2 3.23l-1.3.47C84.98 802.75 83.9 802 82 802c-.36 0-.67-.24-.67-.65-.2-3.24-2-4.82-3.57-4.9-1.33-.06-2.3.3-2.9 1.1-.16.2-.4.3-.67.27-.24-.04-.48-.22-.56-.44-.58-1.55-1.4-2.83-2.54-3.94-2.5-2.43-7.14-2.94-11.25-1.25-2.87 1.17-4.75 4.2-4.75 7.72 0 .37.04.95.08 1.32.04.37-.16.7-.5.77-3.22.82-4.87 2.74-4.87 5.8v.4c.2 3.5 2.4 5.74 5.58 5.74z" stroke="#000" stroke-opacity="0" fill="#fff"/><use xlink:href="#a" transform="matrix(1,0,0,1,111,800) translate(0 21.52777777777778)"/><path d="M160 706a6 6 0 0 1 6-6h368a6 6 0 0 1 6 6v1228a6 6 0 0 1-6 6H166a6 6 0 0 1-6-6z" fill="#fff" fill-opacity="0"/><path d="M184.4 700h12.27m12.26 0h12.27m12.27 0h12.26m12.27 0h12.27m12.26 0h12.27m12.27 0h12.26m12.27 0h12.27m12.26 0h12.27m12.27 0h12.26m12.27 0h12.27m12.26 0H442m12.27 0h12.26m12.27 0h12.27m12.26 0h12.27m12.27 0H534a6 6 0 0 1 6 6v6.02m0 12.04v12.04m0 12.04v12.04m0 12.04v12.03m0 12.04v12.03m0 12.04v12.04m0 12.05v12.04m0 12.03v12.04m0 12.04v12.05m0 12.04v12.02m0 12.04v12.04m0 12.04v12.04m0 12.04v12.04m0 12.04v12.04m0 12.04v12.04m0 12.04v12.04m0 12.03v12.05m0 12.03v12.05m0 12.04v12.03m0 12.04v12.04m0 12.05v12.04m0 12.03v12.04m0 12.04v12.04m0 12.04v12.04m0 12.04v12.04m0 12.04v12.04m0 12.04v12.04m0 12.04v12.04m0 12.04v12.04m0 12.04v12.03m0 12.03v12.04m0 12.04v12.05m0 12.04v12.03m0 12.04v12.04m0 12.05v12.04m0 12.02v12.05m0 12.03v12.04m0 12.04v12.04m0 12.04V1627m0 12.04v12.04m0 12.04v12.04m0 12.04v12.03m0 12.05v12.03m0 12.05v12.04m0 12.03v12.04m0 12.04v12.05m0 12.04v12.03m0 12.04v12.04m0 12.04v12.04m0 12.04v12.04m0 12.04v12.04m0 12.04v6.02a6 6 0 0 1-6 6h-6.13m-12.27 0h-12.27m-12.26 0H478.8m-12.27 0h-12.26m-12.27 0h-12.27m-12.26 0H405.2m-12.27 0h-12.26m-12.27 0h-12.27m-12.26 0H331.6m-12.27 0h-12.26m-12.27 0h-12.27m-12.26 0H258m-12.27 0h-12.26m-12.27 0h-12.27m-12.26 0H184.4m-12.27 0H166a6 6 0 0 1-6-6v-6.02m0-12.04v-12.04m0-12.04v-12.04m0-12.04v-12.04m0-12.03v-12.03m0-12.04v-12.04m0-12.05v-12.04m0-12.03v-12.04m0-12.04v-12.05m0-12.04v-12.02m0-12.05v-12.03m0-12.04v-12.04m0-12.04v-12.04m0-12.04v-12.04m0-12.04v-12.04m0-12.04v-12.04m0-12.03v-12.05m0-12.03v-12.05m0-12.04v-12.03m0-12.04v-12.04m0-12.05v-12.04m0-12.03v-12.04m0-12.04v-12.04m0-12.04v-12.04m0-12.04v-12.04m0-12.04v-12.04m0-12.04v-12.04m0-12.04v-12.04m0-12.04v-12.04m0-12.04v-12.03m0-12.03v-12.04m0-12.04v-12.05m0-12.04v-12.03m0-12.04v-12.04m0-12.05v-12.04m0-12.02v-12.05m0-12.03v-12.04m0-12.04v-12.04m0-12.04V1013m0-12.04v-12.04m0-12.04v-12.04m0-12.04v-12.03m0-12.04V916.7m0-12.05V892.6m0-12.03v-12.04m0-12.04v-12.05m0-12.04v-12.03m0-12.04V796.3m0-12.04V772.2m0-12.04v-12.04m0-12.04v-12.04m0-12.04V706a6 6 0 0 1 6-6h6.13" stroke="#00a4a6" stroke-width="3" fill="none"/><use xlink:href="#b" transform="matrix(1,0,0,1,160,720) translate(104.24696180555557 21.52777777777778)"/><use xlink:href="#c" transform="matrix(1,0,0,1,160,720) translate(222.36762152777777 21.52777777777778)"/><path d="M60 906a6 6 0 0 1 6-6h1208a6 6 0 0 1 6 6v968a6 6 0 0 1-6 6H66a6 6 0 0 1-6-6z" stroke="#7aa116" stroke-width="3" fill="#fff" fill-opacity="0"/><path d="M60 900h56v56H60v-56z" stroke="#fff" stroke-opacity="0" fill="#7aa116"/><path d="M103.38 922.18c-.15-.17-.34-.25-.56-.25h-5.15v-5.58c-.03-2.54-.97-4.7-2.84-6.4-1.9-1.84-4.15-2.75-6.77-2.75-2.65 0-4.9.83-6.8 2.62-1.9 1.7-2.87 3.87-2.9 6.4v5.66H73.2c-.24 0-.43.1-.58.25-.16.17-.22.34-.22.6V948c0 .43.34.8.8.8h29.6c.46 0 .8-.37.8-.8v-25.28c0-.2-.06-.38-.22-.54zm-23.46-5.9c.03-2.13.8-3.88 2.37-5.3 1.6-1.5 3.52-2.2 5.73-2.2 2.22 0 4.12.75 5.7 2.25 1.54 1.4 2.32 3.2 2.32 5.32v5.58H79.9zm22.1 30.94H73.98v-23.7h28z" stroke="#fff" stroke-opacity="0" fill="#fff"/><path d="M87.2 937.3v6.25h1.6v-6.23c2.13-.4 3.62-2.2 3.63-4.35 0-2.43-1.97-4.4-4.4-4.43-2.2-.03-4.06 1.5-4.44 3.68-.42 2.4 1.2 4.68 3.6 5.1zm.82-7.15c.78 0 1.44.27 2 .83.54.55.82 1.2.8 2 .03 1.54-1.2 2.8-2.74 2.8h-.06c-1.56.13-2.92-1.04-3.04-2.6-.12-1.56 1.05-2.93 2.6-3.03.16-.02.28-.02.44 0z" stroke="#fff" stroke-opacity="0" fill="#fff"/><use xlink:href="#d" transform="matrix(1,0,0,1,131,920) translate(0 21.52777777777778)"/><use xlink:href="#e" transform="matrix(1,0,0,1,131,920) translate(70.64887152777777 21.52777777777778)"/><path d="M20 646a6 6 0 0 1 6-6h1288a6 6 0 0 1 6 6v1308a6 6 0 0 1-6 6H26a6 6 0 0 1-6-6z" fill="#fff" fill-opacity="0"/><path d="M43.9 640h11.9m11.94 0h11.93m11.92 0h11.92m11.92 0h11.93m11.93 0h11.92m11.93 0h11.92m11.93 0h11.93m11.92 0h11.93m11.92 0h11.93m11.93 0h11.92m11.93 0h11.93m11.93 0h11.93m11.9 0h11.94m11.92 0h11.93m11.92 0h11.92m11.93 0h11.92m11.92 0h11.92m11.93 0h11.93m11.92 0h11.93m11.92 0H509m11.93 0h11.92m11.93 0h11.92m11.93 0h11.93m11.92 0h11.93m11.93 0h11.93m11.92 0h11.93m11.94 0h11.92m11.93 0h11.92m11.92 0h11.93m11.92 0h11.92m11.92 0h11.93m11.93 0h11.92m11.93 0h11.92m11.93 0h11.93m11.92 0h11.93m11.92 0h11.93m11.93 0h11.92m11.93 0h11.93m11.93 0h11.92m11.93 0h11.94m11.92 0h11.93m11.92 0h11.92m11.93 0h11.92m11.92 0h11.92m11.93 0h11.93m11.92 0h11.93m11.92 0H1153m11.93 0h11.92m11.93 0h11.92m11.93 0h11.93m11.92 0h11.93m11.93 0h11.93m11.92 0h11.93m11.94 0h5.96a6 6 0 0 1 6 6v5.95m0 11.9v11.88m0 11.9v11.88m0 11.9v11.9m0 11.88v11.9m0 11.88v11.9m0 11.88v11.9m0 11.9v11.88m0 11.9v11.88m0 11.9v11.88m0 11.9v11.88m0 11.9v11.88m0 11.9v11.9m0 11.88v11.9m0 11.88v11.9m0 11.88v11.9m0 11.88v11.9m0 11.88v11.9m0 11.9V1080m0 11.9v11.88m0 11.9v11.88m0 11.9v11.88m0 11.9v11.88m0 11.9v11.9m0 11.88v11.9m0 11.88v11.9m0 11.88v11.9m0 11.88v11.9m0 11.88v11.9m0 11.9v11.88m0 11.9v11.88m0 11.9v11.88m0 11.9v11.88m0 11.9v11.88m0 11.9v11.9m0 11.88v11.9m0 11.88v11.9m0 11.88v11.9m0 11.88v11.9m0 11.88v11.9m0 11.9v11.88m0 11.9V1627m0 11.9v11.88m0 11.9v11.88m0 11.9v11.88m0 11.9v11.9m0 11.88v11.9m0 11.88v11.9m0 11.88v11.9m0 11.88v11.9m0 11.88v11.9m0 11.9v11.88m0 11.9v11.88m0 11.9v11.88m0 11.9v11.88m0 11.9v5.94a6 6 0 0 1-6 6h-5.96m-11.93 0h-11.9m-11.94 0h-11.93m-11.92 0h-11.92m-11.92 0h-11.93m-11.93 0h-11.92m-11.93 0h-11.92m-11.93 0h-11.93m-11.92 0h-11.93m-11.92 0h-11.93m-11.93 0h-11.92m-11.93 0h-11.93m-11.93 0h-11.92m-11.93 0h-11.94m-11.92 0H974.1m-11.92 0h-11.92m-11.93 0H926.4m-11.92 0h-11.92m-11.93 0H878.7m-11.92 0h-11.93m-11.92 0H831m-11.93 0h-11.92m-11.93 0H783.3m-11.93 0h-11.93m-11.92 0H735.6m-11.93 0h-11.93m-11.92 0H687.9m-11.94 0h-11.92m-11.93 0H640.2m-11.92 0h-11.93m-11.92 0H592.5m-11.92 0h-11.93m-11.93 0h-11.92m-11.93 0h-11.92m-11.93 0h-11.93m-11.92 0h-11.93m-11.92 0h-11.93m-11.93 0h-11.92m-11.93 0h-11.93m-11.93 0H377.8m-11.9 0h-11.94m-11.92 0H330.1m-11.92 0h-11.92m-11.93 0H282.4m-11.92 0h-11.92m-11.93 0H234.7m-11.92 0h-11.93m-11.92 0H187m-11.93 0h-11.92m-11.93 0H139.3m-11.93 0h-11.93m-11.92 0H91.6m-11.93 0H67.74m-11.92 0H43.88m-11.94 0H26a6 6 0 0 1-6-6v-5.94m0-11.9v-11.9m0-11.88v-11.9m0-11.88v-11.9m0-11.88v-11.9m0-11.88v-11.9m0-11.88v-11.9m0-11.9v-11.88m0-11.9v-11.88m0-11.9v-11.88m0-11.9v-11.88m0-11.9v-11.88m0-11.9v-11.9m0-11.88v-11.9m0-11.88v-11.9m0-11.88v-11.9m0-11.88v-11.9m0-11.88v-11.9m0-11.9V1520m0-11.9v-11.88m0-11.9v-11.88m0-11.9v-11.88m0-11.9v-11.88m0-11.9v-11.9m0-11.88v-11.9m0-11.88v-11.9m0-11.88v-11.9m0-11.88v-11.9m0-11.88v-11.9m0-11.9v-11.88m0-11.9v-11.88m0-11.9v-11.88m0-11.9v-11.88m0-11.9v-11.88m0-11.9v-11.9m0-11.88v-11.9m0-11.88v-11.9m0-11.88v-11.9m0-11.88v-11.9m0-11.88v-11.9m0-11.9V996.8m0-11.9V973m0-11.9v-11.88m0-11.9v-11.88m0-11.9v-11.88m0-11.9v-11.9M20 866v-11.9m0-11.88v-11.9m0-11.88v-11.9m0-11.88v-11.9m0-11.88v-11.9m0-11.9V735.2m0-11.9V711.4m0-11.9v-11.88m0-11.9v-11.88m0-11.9V646a6 6 0 0 1 6-6h5.96" stroke="#00a4a6" stroke-width="3" fill="none"/><path d="M20 640h56v56H20v-56z" stroke="#fff" stroke-opacity="0" fill="#00a4a6"/><path d="M63.84 669.36L57.88 662l5.96-7.4H37.67v-2.08c.98-.32 1.62-1.16 1.62-2.2-.1-1.15-1.03-2.02-2.17-2.14-1.3-.08-2.44.87-2.53 2.15 0 1.03.63 1.87 1.58 2.2v33.88h-4.02v1.6h9.44v-1.6h-3.93v-17.04zM36.88 649.6c.4-.03.76.33.76.73 0 .44-.32.75-.73.75-.4.04-.75-.3-.75-.7v-.05c0-.4.32-.72.73-.72zm23.6 6.62L55.83 662l4.65 5.73h-22.8v-11.5z" stroke="#fff" stroke-opacity="0" fill="#fff"/><use xlink:href="#f" transform="matrix(1,0,0,1,91,660) translate(0 21.52777777777778)"/><path d="M840 706a6 6 0 0 1 6-6h408a6 6 0 0 1 6 6v1228a6 6 0 0 1-6 6H846a6 6 0 0 1-6-6z" fill="#fff" fill-opacity="0"/><path d="M864 700h12m12 0h12m12 0h12m12 0h12m12 0h12m12 0h12m12 0h12m12 0h12m12 0h12m12 0h12m12 0h12m12 0h12m12 0h12m12 0h12m12 0h12m12 0h12m12 0h6a6 6 0 0 1 6 6v6.02m0 12.04v12.04m0 12.04v12.04m0 12.04v12.03m0 12.04v12.03m0 12.04v12.04m0 12.05v12.04m0 12.03v12.04m0 12.04v12.05m0 12.04v12.02m0 12.04v12.04m0 12.04v12.04m0 12.04v12.04m0 12.04v12.04m0 12.04v12.04m0 12.04v12.04m0 12.03v12.05m0 12.03v12.05m0 12.04v12.03m0 12.04v12.04m0 12.05v12.04m0 12.03v12.04m0 12.04v12.04m0 12.04v12.04m0 12.04v12.04m0 12.04v12.04m0 12.04v12.04m0 12.04v12.04m0 12.04v12.04m0 12.04v12.03m0 12.03v12.04m0 12.04v12.05m0 12.04v12.03m0 12.04v12.04m0 12.05v12.04m0 12.02v12.05m0 12.03v12.04m0 12.04v12.04m0 12.04V1627m0 12.04v12.04m0 12.04v12.04m0 12.04v12.03m0 12.05v12.03m0 12.05v12.04m0 12.03v12.04m0 12.04v12.05m0 12.04v12.03m0 12.04v12.04m0 12.04v12.04m0 12.04v12.04m0 12.04v12.04m0 12.04v6.02a6 6 0 0 1-6 6h-6m-12 0h-12m-12 0h-12m-12 0h-12m-12 0h-12m-12 0h-12m-12 0h-12m-12 0h-12m-12 0h-12m-12 0h-12m-12 0h-12m-12 0h-12m-12 0h-12m-12 0h-12m-12 0h-12m-12 0h-12m-12 0h-12m-12 0h-6a6 6 0 0 1-6-6v-6.02m0-12.04v-12.04m0-12.04v-12.04m0-12.04v-12.04m0-12.03v-12.03m0-12.04v-12.04m0-12.05v-12.04m0-12.03v-12.04m0-12.04v-12.05m0-12.04v-12.02m0-12.05v-12.03m0-12.04v-12.04m0-12.04v-12.04m0-12.04v-12.04m0-12.04v-12.04m0-12.04v-12.04m0-12.03v-12.05m0-12.03v-12.05m0-12.04v-12.03m0-12.04v-12.04m0-12.05v-12.04m0-12.03v-12.04m0-12.04v-12.04m0-12.04v-12.04m0-12.04v-12.04m0-12.04v-12.04m0-12.04v-12.04m0-12.04v-12.04m0-12.04v-12.04m0-12.04v-12.03m0-12.03v-12.04m0-12.04v-12.05m0-12.04v-12.03m0-12.04v-12.04m0-12.05v-12.04m0-12.02v-12.05m0-12.03v-12.04m0-12.04v-12.04m0-12.04V1013m0-12.04v-12.04m0-12.04v-12.04m0-12.04v-12.03m0-12.04V916.7m0-12.05V892.6m0-12.03v-12.04m0-12.04v-12.05m0-12.04v-12.03m0-12.04V796.3m0-12.04V772.2m0-12.04v-12.04m0-12.04v-12.04m0-12.04V706a6 6 0 0 1 6-6h6" stroke="#00a4a6" stroke-width="3" fill="none"/><use xlink:href="#b" transform="matrix(1,0,0,1,840,720) translate(124.24696180555557 21.52777777777778)"/><use xlink:href="#c" transform="matrix(1,0,0,1,840,720) translate(242.36762152777777 21.52777777777778)"/><path d="M180 1386a6 6 0 0 1 6-6h988a6 6 0 0 1 6 6v468a6 6 0 0 1-6 6H186a6 6 0 0 1-6-6z" fill="#fff" fill-opacity="0"/><path d="M204.07 1380h12.05m12.05 0h12.05m12.05 0h12.05m12.05 0h12.05m12.04 0h12.05m12.06 0h12.05m12.06 0h12.05m12.06 0h12.05m12.05 0h12.05m12.05 0H433m12.05 0h12.05m12.05 0h12.05m12.04 0h12.05m12.04 0h12.05m12.04 0h12.05m12.04 0h12.05m12.03 0h12.05m12.05 0h12.05m12.05 0h12.05m12.05 0h12.05m12.04 0h12.05m12.05 0h12.05m12.05 0h12.05m12.05 0h12.05m12.04 0h12.06m12.05 0h12.06m12.05 0h12.06m12.05 0h12.06m12.04 0h12.05m12.05 0h12.05m12.05 0h12.05m12.05 0h12.05m12.05 0h12.04m12.05 0h12.04m12.05 0h12.04m12.05 0h12.04m12.05 0h12.03m12.05 0h12.05m12.05 0h12.05m12.05 0h12.05m12.05 0h6.02a6 6 0 0 1 6 6v6.16m0 12.3v12.33m0 12.3v12.32m0 12.32v12.3m0 12.33v12.3m0 12.33v12.32m0 12.3v12.33m0 12.3v12.33m0 12.32v12.3m0 12.33v12.3m0 12.33v12.3m0 12.33v12.3m0 12.32v12.32m0 12.3v12.33m0 12.3V1737m0 12.32v12.3m0 12.33v12.3m0 12.33v12.32m0 12.3v12.33m0 12.3v6.17a6 6 0 0 1-6 6h-6.02m-12.05 0h-12.05m-12.05 0h-12.05m-12.05 0h-12.05m-12.05 0h-12.05m-12.04 0h-12.05m-12.06 0h-12.05m-12.06 0H999.3m-12.06 0H975.2m-12.05 0H951.1m-12.05 0H927m-12.05 0H902.9m-12.05 0H878.8m-12.04 0H854.7m-12.04 0H830.6m-12.04 0H806.5m-12.04 0H782.4m-12.03 0h-12.05m-12.05 0h-12.05m-12.05 0h-12.05m-12.05 0h-12.05m-12.04 0h-12.05m-12.05 0h-12.05m-12.05 0h-12.05m-12.05 0h-12.05m-12.04 0h-12.06m-12.05 0h-12.06m-12.05 0h-12.06m-12.05 0h-12.06m-12.05 0h-12.05m-12.05 0h-12.05m-12.05 0h-12.05m-12.05 0h-12.05m-12.05 0h-12.04m-12.05 0h-12.04m-12.05 0h-12.04m-12.05 0h-12.04m-12.04 0h-12.05m-12.05 0h-12.05m-12.05 0h-12.05m-12.05 0h-12.05m-12.05 0H186a6 6 0 0 1-6-6v-6.16m0-12.3v-12.33m0-12.3v-12.32m0-12.32v-12.3m0-12.33v-12.3m0-12.33v-12.32m0-12.3v-12.33m0-12.3v-12.33m0-12.32v-12.3m0-12.33v-12.3m0-12.33v-12.3m0-12.33v-12.3m0-12.32v-12.32m0-12.3v-12.33m0-12.3V1503m0-12.32v-12.3m0-12.33v-12.3m0-12.33v-12.32m0-12.3v-12.33m0-12.3V1386a6 6 0 0 1 6-6h6.02" stroke="#ed7100" stroke-width="3" fill="none"/><path d="M652 1380h56v56h-56v-56z" stroke="#fff" stroke-opacity="0" fill="#ed7100"/><path d="M671.68 1403.73l-1.14 1.13 2.33 2.34H660v1.6h12.87l-2.33 2.34 1.14 1.13 4.27-4.27-4.27-4.27zM700 1407.2h-12.87l2.33-2.34-1.14-1.13-4.27 4.27 4.27 4.27 1.14-1.13-2.33-2.34H700v-1.6zM679.2 1390.63v12.87h1.6v-12.87l2.34 2.33 1.13-1.13-4.27-4.28-4.27 4.28 1.13 1.13 2.34-2.33zM680.8 1425.37v-12.87h-1.6v12.87l-2.34-2.33-1.13 1.13 4.27 4.28 4.27-4.28-1.13-1.13-2.34 2.33z" stroke="#fff" stroke-opacity="0" fill="#fff"/><use xlink:href="#g" transform="matrix(1,0,0,1,180,1451) translate(399.89149305555554 21.52777777777778)"/><use xlink:href="#h" transform="matrix(1,0,0,1,180,1451) translate(454.99131944444446 21.52777777777778)"/><use xlink:href="#i" transform="matrix(1,0,0,1,180,1451) translate(538.4114583333333 21.52777777777778)"/><path d="M480 906a6 6 0 0 1 6-6h408a6 6 0 0 1 6 6v188a6 6 0 0 1-6 6H486a6 6 0 0 1-6-6z" stroke="#dd344c" stroke-width="3" fill="#fff" fill-opacity="0"/><use xlink:href="#j" transform="matrix(1,0,0,1,495,920) translate(0 21.52777777777778)"/><use xlink:href="#i" transform="matrix(1,0,0,1,495,920) translate(93.58723958333331 21.52777777777778)"/><path d="M120 1366a6 6 0 0 1 6-6h1068a6 6 0 0 1 6 6v208a6 6 0 0 1-6 6H126a6 6 0 0 1-6-6z" stroke="#dd344c" stroke-width="3" fill="#fff" fill-opacity="0"/><use xlink:href="#j" transform="matrix(1,0,0,1,135,1380) translate(0 21.52777777777778)"/><use xlink:href="#i" transform="matrix(1,0,0,1,135,1380) translate(93.58723958333331 21.52777777777778)"/><path d="M711.22 1022.76v-5.2h5.2v5.2h-5.2zm-15.14 0v-5.2h5.1v5.2h-5.1zm-17.27 0v-5.2h5.22v5.2h-5.2zm-15.23 0v-5.2h5.02v5.2h-5.03zm13.3-38.38v-12.83h26.25v12.83h-26.24zm41.68 28.74h-3.38v-7.33c0-1.27-.96-2.23-2.12-2.23h-5.5v-7.43c0-1.15-.96-2.12-2.2-2.12H692.2v-5.2h13.12c1.25 0 2.2-1.07 2.2-2.23v-17.27c0-1.25-.95-2.22-2.2-2.22h-30.68c-1.25 0-2.2.98-2.2 2.23v17.26c0 1.15.95 2.2 2.2 2.2h13.12v5.22h-13.12c-1.25 0-2.2.97-2.2 2.12v7.43h-5.5c-1.17 0-2.13.96-2.13 2.22v7.32h-3.38c-1.25 0-2.22 1.06-2.22 2.22v9.64c0 1.16.97 2.12 2.22 2.12h9.36c1.26 0 2.23-.96 2.23-2.12v-9.64c0-1.16-.97-2.22-2.22-2.22h-1.63v-5.2h9.06v5.2h-1.64c-1.26 0-2.23 1.06-2.23 2.22v9.64c0 1.16.97 2.12 2.22 2.12h9.54c1.26 0 2.22-.96 2.22-2.12v-9.64c0-1.16-.96-2.22-2.22-2.22h-3.57v-7.33c0-1.27-.96-2.23-2.12-2.23h-3.57v-5.2h26.24v5.2h-3.57c-1.16 0-2.12.96-2.12 2.22v7.32h-3.57c-1.26 0-2.22 1.06-2.22 2.22v9.64c0 1.16.96 2.12 2.22 2.12h9.55c1.26 0 2.23-.96 2.23-2.12v-9.64c0-1.16-.97-2.22-2.22-2.22h-1.63v-5.2h9.06v5.2H709c-1.16 0-2.12 1.06-2.12 2.22v9.64c0 1.16.96 2.12 2.12 2.12h9.55c1.25 0 2.22-.96 2.22-2.12v-9.64c0-1.16-.97-2.22-2.22-2.22zM690 1043.88c-24.2 0-43.88-19.67-43.88-43.88 0-24.2 19.67-43.88 43.88-43.88 24.2 0 43.88 19.67 43.88 43.88 0 24.2-19.67 43.88-43.88 43.88zm0-92.1c-26.62 0-48.23 21.6-48.23 48.22 0 26.62 21.6 48.22 48.23 48.22 26.62 0 48.23-21.6 48.23-48.22 0-26.62-21.6-48.23-48.23-48.23z" stroke="#000" stroke-opacity="0" fill="#8c4fff"/><use xlink:href="#k" transform="matrix(1,0,0,1,611.7746271927874,1057.2253728072124) translate(57.281467013888886 21.52777777777778)"/><path d="M999.08 1500.92v-81.84h81.84v81.84h-81.84zM1100 1430v-5.4h-13.68v-8.28c0-1.44-1.2-2.64-2.64-2.64h-8.28V1400h-5.4v13.68h-10.92V1400h-5.4v13.68h-10.92V1400h-5.52v13.68h-10.92V1400h-5.4v13.68H1010V1400h-5.4v13.68h-8.28c-1.44 0-2.64 1.2-2.64 2.64v8.28H980v5.4h13.68v10.92H980v5.4h13.68v10.92H980v5.52h13.68v10.92H980v5.4h13.68V1490H980v5.4h13.68v8.28c0 1.44 1.2 2.64 2.64 2.64h8.28V1520h5.4v-13.68h10.92V1520h5.4v-13.68h10.92V1520h5.52v-13.68h10.92V1520h5.4v-13.68H1070V1520h5.4v-13.68h8.28c1.44 0 2.64-1.2 2.64-2.64v-8.28H1100v-5.4h-13.68v-10.92H1100v-5.4h-13.68v-10.92H1100v-5.52h-13.68v-10.92H1100v-5.4h-13.68V1430H1100z" stroke="#000" stroke-opacity="0" fill="#ed7100"/><use xlink:href="#l" transform="matrix(1,0,0,1,950,1529) translate(20.57183159722223 21.52777777777778)"/><use xlink:href="#m" transform="matrix(1,0,0,1,950,1529) translate(69.96419270833334 21.52777777777778)"/><path d="M299.08 1500.92v-81.84h81.84v81.84h-81.84zM400 1430v-5.4h-13.68v-8.28c0-1.44-1.2-2.64-2.64-2.64h-8.28V1400H370v13.68h-10.92V1400h-5.4v13.68h-10.92V1400h-5.52v13.68h-10.92V1400h-5.4v13.68H310V1400h-5.4v13.68h-8.28c-1.44 0-2.64 1.2-2.64 2.64v8.28H280v5.4h13.68v10.92H280v5.4h13.68v10.92H280v5.52h13.68v10.92H280v5.4h13.68V1490H280v5.4h13.68v8.28c0 1.44 1.2 2.64 2.64 2.64h8.28V1520h5.4v-13.68h10.92V1520h5.4v-13.68h10.92V1520h5.52v-13.68h10.92V1520h5.4v-13.68H370V1520h5.4v-13.68h8.28c1.44 0 2.64-1.2 2.64-2.64v-8.28H400v-5.4h-13.68v-10.92H400v-5.4h-13.68v-10.92H400v-5.52h-13.68v-10.92H400v-5.4h-13.68V1430H400z" stroke="#000" stroke-opacity="0" fill="#ed7100"/><use xlink:href="#l" transform="matrix(1,0,0,1,250,1529) translate(20.57183159722223 21.52777777777778)"/><use xlink:href="#m" transform="matrix(1,0,0,1,250,1529) translate(69.96419270833334 21.52777777777778)"/><path d="M740.4 580.77c0-1.18-.96-2.12-2.16-2.12h-29.4c-1.2 0-2.16.94-2.16 2.12v5.3c0 1.2.96 2.14 2.16 2.14h29.4c1.2 0 2.16-.94 2.16-2.12v-5.3zm4.08 10.03c0 .95-.72 1.77-1.68 1.77H637.2c-.96 0-1.68-.82-1.68-1.77v-14.87c0-.94.72-1.77 1.68-1.77h105.6c.96 0 1.68.83 1.68 1.77v14.87zm-1.68-22.06H637.2c-3.96 0-7.2 3.3-7.2 7.2v14.86c0 3.9 3.24 7.2 7.2 7.2h105.6c3.96 0 7.2-3.3 7.2-7.2v-14.87c0-3.9-3.24-7.2-7.2-7.2zm-97.68-19.6V495.1h89.76v54.05h-89.76zm91.32-59.58h-93c-2.04 0-3.84 1.77-3.84 3.9v57.22c0 2.13 1.8 3.9 3.84 3.9h93c2.16 0 3.84-1.77 3.84-3.9v-57.23c0-2.12-1.68-3.9-3.84-3.9zm8.04 67.38c0 .94-.72 1.77-1.68 1.77H637.2c-.96 0-1.68-.82-1.68-1.76V487.2c0-.95.72-1.77 1.68-1.77h105.6c.96 0 1.68.82 1.68 1.77v69.74zM742.8 480H637.2c-3.96 0-7.2 3.3-7.2 7.2v69.74c0 4 3.24 7.2 7.2 7.2h105.6c3.96 0 7.2-3.2 7.2-7.2V487.2c0-3.9-3.24-7.2-7.2-7.2z" stroke="#000" stroke-opacity="0" fill="#232f3e"/><use xlink:href="#n" transform="matrix(1,0,0,1,600,607) translate(59.82421875 21.52777777777778)"/><path d="M624.5 780h131" stroke="#fff" stroke-width="9" stroke-linecap="round" fill="none"/><path d="M715.92 810.72h-4.08v-48.36c0-1.08-.72-2.04-1.68-2.52l-.24-.12c-5.52-2.4-11.16-5.04-19.32-5.04-8.52 0-14.76 2.76-21 5.88-.96.48-1.56 1.44-1.56 2.4v47.76h-3.96v-51.6c6.72-5.4 16.32-8.52 26.52-8.52 9.6 0 18.72 2.76 25.32 7.56v52.56zM690.6 745.2c-12 0-23.4 3.84-31.08 10.56-.6.6-.84 1.32-.84 2.04v55.56c0 1.56 1.2 2.76 2.64 2.76h9.48c1.56 0 2.76-1.2 2.76-2.76v-48.72c5.28-2.52 10.32-4.44 17.04-4.44 6.36 0 11.04 1.8 15.72 3.96v49.2c0 1.56 1.2 2.76 2.76 2.76h9.6c1.44 0 2.64-1.2 2.64-2.76v-56.64c0-.72-.36-1.56-.96-2.04-7.56-6.12-18.48-9.48-29.76-9.48zm-.6 89.28c-30.12 0-54.48-24.36-54.48-54.48 0-30.12 24.36-54.48 54.48-54.48 30.12 0 54.48 24.36 54.48 54.48 0 30.12-24.36 54.48-54.48 54.48zM690 720c-33.12 0-60 26.88-60 60 0 33.12 26.88 60 60 60 33.12 0 60-26.88 60-60 0-33.12-26.88-60-60-60z" stroke="#000" stroke-opacity="0" fill="#8c4fff"/><use xlink:href="#o" transform="matrix(1,0,0,1,600,849) translate(2.0171440972222285 21.52777777777778)"/><use xlink:href="#p" transform="matrix(1,0,0,1,600,849) translate(89.44118923611111 21.52777777777778)"/><path d="M700 1140h110v110H700v-110z" stroke="#000" stroke-opacity="0" fill="#e7157b"/><path d="M775.7 1204.3c0-5.44-4.38-9.77-9.84-9.77-5.4 0-9.78 4.33-9.78 9.77 0 5.36 4.4 9.7 9.78 9.7 5.46 0 9.85-4.34 9.85-9.7m2.78 0c0 6.87-5.62 12.44-12.62 12.44-6.93 0-12.55-5.57-12.55-12.44 0-6.95 5.63-12.52 12.56-12.52 7 0 12.63 5.57 12.63 12.52m11.6 18.76l-9.7-8.6c-.76 1.1-1.6 2.07-2.6 2.97l9.62 8.66c.77.68 2.08.6 2.77-.15.76-.82.68-2.13-.1-2.9m-24.24-3.84c8.3 0 15.1-6.65 15.1-14.9s-6.8-15-15.1-15c-8.24 0-15.02 6.75-15.02 15s6.78 14.9 15.02 14.9m26.4 8.54c-.92 1.03-2.23 1.58-3.53 1.58-1.16 0-2.3-.4-3.16-1.24l-10-8.93c-2.86 1.78-6.1 2.8-9.7 2.8-9.8 0-17.8-7.9-17.8-17.65 0-9.84 8-17.74 17.8-17.74 9.84 0 17.85 7.9 17.85 17.74 0 2.75-.7 5.43-1.85 7.76l10.1 9c1.9 1.73 2.07 4.75.3 6.68m-63-47.37c0 .7 0 1.44.1 2.13.07.35-.1.76-.32 1.03-.23.28-.46.4-.77.48-3.4.84-9 3.52-9 11.43 0 5.98 3.3 9.28 6.08 11 1 .55 2.07.9 3.3.9l16.64.06v2.67h-16.7c-1.7 0-3.32-.48-4.7-1.3-2.78-1.72-7.4-5.7-7.4-13.34 0-9.22 6.3-12.6 10-13.82v-1.23c0-7.5 5.1-15.33 11.95-18.15 7.93-3.3 16.32-1.65 22.48 4.4 1.92 1.86 3.46 4.2 4.7 6.8 1.6-1.3 3.62-2.06 5.7-2.06 4.15 0 8.77 3.1 9.62 9.9 3.85.9 12 4 12 14.23 0 4.12-1.3 7.5-3.84 10.1l-1.9-1.92c2-2.07 3-4.82 3-8.2 0-8.92-7.56-11.2-10.8-11.74-.38 0-.68-.2-.9-.55-.25-.3-.32-.7-.25-1.04-.46-5.57-3.77-8.05-6.93-8.05-1.92 0-3.77.98-5.08 2.63-.3.4-.77.62-1.3.55-.47-.07-.93-.42-1.1-.9-1.14-3.1-2.76-5.77-4.84-7.77-5.3-5.28-12.62-6.65-19.48-3.84-5.77 2.4-10.24 9.22-10.24 15.6" stroke="#000" stroke-opacity="0" fill="#fff"/><use xlink:href="#q" transform="matrix(1,0,0,1,670,1259) translate(42.16145833333334 21.52777777777778)"/><use xlink:href="#r" transform="matrix(1,0,0,1,670,1259) translate(21.089409722222214 53.79340277777778)"/><path d="M691.48 1088.06l.05.76.17.7.27.64.37.6.46.55.54.47.6.37.66.27.7.18.76.06h53l1.1.08 1.15.28 1.1.45 1 .6.9.77.75.9.6 1 .46 1.08.3 1.14.08 1.12v38.44h-2.96v-38.33l-.05-.76-.17-.68-.27-.66-.37-.6-.46-.54-.54-.46-.6-.38-.66-.27-.7-.15-.76-.06h-53l-1.1-.1-1.15-.27-1.1-.45-1-.62-.9-.76-.75-.9-.6-1-.46-1.08-.3-1.14-.08-1.1v-6.96h2.96zm0-27.84h-2.96v-.66h2.96z" stroke="#000" stroke-width=".05"/><path d="M756.48 1140h-2.96v-1.54h2.96z"/><path stroke="#000" stroke-width=".05"/><path d="M696.9 1060.22h-3.4l-2.02-3.5v3h-2.96v-3l-2 3.5h-3.42l6.9-11.94z" stroke="#000" stroke-width=".05"/><path d="M811.5 1195h57.17" stroke="#000" stroke-width="3" fill="none"/><path d="M811.54 1196.47H810v-2.94h1.54z" stroke="#000" stroke-width=".05"/><path d="M859.68 1185l17.32 10-17.32 10m17.32-10h-8.5" stroke="#000" stroke-width="3" fill="none"/><path d="M691.48 708.67h-2.96V630h2.96zm0-99.67h-2.96v-9.5h2.96z" stroke="#000" stroke-width=".05"/><path d="M691.48 599.54h-2.96V598h2.96z"/><path stroke="#000" stroke-width=".05"/><path d="M701.28 700.42L690 719.95l-11.28-19.53 2.56-1.48 7.25 12.55v-3h2.95v3l7.24-12.56zM691.48 940.44h-2.96V877h2.96zm0-88.44h-2.96v-10.5h2.96z" stroke="#000" stroke-width=".05"/><path d="M691.48 841.54h-2.96v-1.6l1.48.06 1.48-.06z"/><path stroke="#000" stroke-width=".05"/><path d="M701.28 932.2L690 951.7l-11.28-19.53 2.56-1.48 7.25 12.55v-3h2.95v3l7.24-12.55z" stroke="#000" stroke-width=".05"/><path d="M880 1140h100v100H880v-100z" stroke="#000" stroke-opacity="0" fill="#e7157b"/><path d="M901.32 1187.53c1.38 0 2.48 1.1 2.48 2.47s-1.1 2.47-2.48 2.47c-1.37 0-2.54-1.1-2.54-2.47s1.17-2.47 2.54-2.47zm30 32.5c-14.6 0-27.18-10.72-29.8-25.02 2.2-.13 4.07-1.68 4.62-3.77h7.7v-2.46h-7.7c-.55-2.1-2.4-3.64-4.6-3.78 2.6-14.1 15.4-25.03 29.78-25.03 5.43 0 11.08 2.08 16.8 6.05l1.43-2.02c-6.2-4.3-12.3-6.5-18.23-6.5-15.9 0-30.07 12.35-32.4 28.14-1.6.85-2.62 2.47-2.62 4.36 0 1.88 1.03 3.5 2.6 4.36 2.35 16.05 16.25 28.14 32.42 28.14 6.74 0 13.7-2.28 19.47-6.5l-1.45-2.02c-5.37 3.9-11.77 6.05-18.03 6.05zm-13.62-34.45c2.34.52 5.23.65 7.36.65 2.06 0 4.8-.13 7.1-.6l-5.73 11.32c-.06.13-.13.33-.13.52v5.6c-.97.64-2.7 1.7-3.72 1.88v-7.48c0-.13-.07-.32-.14-.45l-4.74-11.44zm7.36-4.36c5.02 0 7.7.8 8.6 1.3-.9.46-3.58 1.24-8.6 1.24s-7.7-.78-8.53-1.23c.82-.52 3.5-1.3 8.53-1.3zm-3.72 26.26h1.38c1.5-.2 3.5-1.36 5.16-2.46l.34-.2c.42-.26.62-.65.62-1.04v-5.98l6.95-13.9c.34-.4.54-.86.54-1.38 0-3.3-7.1-3.76-11.28-3.76-4.2 0-11.22.45-11.22 3.77 0 .45.14.84.35 1.16l5.84 14.03v8.52c0 .7.62 1.23 1.3 1.23zm36.26-1.23c1.38 0 2.48 1.1 2.48 2.47 0 1.43-1.1 2.54-2.48 2.54s-2.48-1.1-2.48-2.54c0-1.37 1.1-2.47 2.48-2.47zm0-37.5c1.38 0 2.48 1.1 2.48 2.53 0 1.37-1.1 2.47-2.48 2.47s-2.48-1.1-2.48-2.47c0-1.43 1.1-2.54 2.48-2.54zm2.48 18.78c1.37 0 2.54 1.1 2.54 2.47s-1.17 2.47-2.54 2.47c-1.38 0-2.48-1.1-2.48-2.47s1.1-2.47 2.48-2.47zm-12.52 3.7h7.7c.55 2.15 2.48 3.78 4.82 3.78 2.75 0 5.02-2.27 5.02-5s-2.27-5-5.02-5c-2.34 0-4.27 1.62-4.82 3.77h-7.7v-16.25h5.23c.54 2.14 2.46 3.7 4.8 3.7 2.75 0 5.02-2.2 5.02-4.94 0-2.8-2.27-5-5.02-5-2.34 0-4.26 1.56-4.82 3.7h-6.46c-.7 0-1.24.6-1.24 1.3v17.5h-8.74v2.45h8.74v17.5c0 .7.55 1.3 1.24 1.3h6.46c.56 2.13 2.48 3.7 4.82 3.7 2.75 0 5.02-2.2 5.02-5 0-2.74-2.27-4.95-5.02-4.95-2.34 0-4.26 1.56-4.82 3.7h-5.22v-16.25z" stroke="#000" stroke-opacity="0" fill="#fff"/><use xlink:href="#s" transform="matrix(1,0,0,1,850,1249) translate(0.17686631944445708 21.52777777777778)"/><use xlink:href="#t" transform="matrix(1,0,0,1,850,1249) translate(6.426866319444457 21.52777777777778)"/><use xlink:href="#u" transform="matrix(1,0,0,1,850,1249) translate(106.45941840277777 21.52777777777778)"/><path d="M640.27 1000H344.23a6 6 0 0 0-6 6v382.67" stroke="#000" stroke-width="3" fill="none"/><path d="M641.78 999.24v.76l.07 1.48h-1.6v-2.96h1.58z" stroke="#000" stroke-width=".05"/><path d="M348.23 1379.68l-10 17.32-10-17.32m10 17.32v-8.5M739.73 1000H1034a6 6 0 0 1 6 6v382.67" stroke="#000" stroke-width="3" fill="none"/><path d="M739.76 1001.48h-1.6l.06-.72v-.76l-.07-1.48h1.6z" stroke="#000" stroke-width=".05"/><path d="M1050 1379.68l-10 17.32-10-17.32m10 17.32v-8.5" stroke="#000" stroke-width="3" fill="none"/><path d="M790.6 1318.94l.07.77.17.7.27.65.38.6.46.55.54.46.6.37.66.27.7.16.76.07H1013l1.1.08 1.15.3 1.1.44 1 .6.88.77.76.9.6 1 .46 1.1.27 1.13.1 1.1v57.74h-2.96v-57.6l-.06-.78-.16-.7-.27-.65-.37-.6-.46-.55-.54-.46-.6-.37-.66-.27-.7-.16-.75-.07H795.07l-1.1-.08-1.15-.3-1.1-.44-1-.6-.88-.77-.76-.9-.63-1-.44-1.1-.28-1.13-.1-1.1v-3.8h2.97zm0-56.94h-2.94v-10.5h2.96z" stroke="#000" stroke-width=".05"/><path d="M790.6 1251.54h-2.94V1250h2.96z"/><path stroke="#000" stroke-width=".05"/><path d="M1030.22 1380.42l-11.28 19.53-11.27-19.53 2.55-1.48 7.25 12.55v-3h2.95v3l7.25-12.56zM726.76 1319.06l-.08 1.1-.28 1.15-.45 1.1-.6 1-.77.9-.9.75-1 .6-1.08.46-1.14.3-1.1.07h-344.4l-.77.07-.7.16-.65.27-.6.37-.55.46-.46.54-.37.6-.27.66-.17.7-.06.76v57.6h-2.95v-57.72l.1-1.1.27-1.15.43-1.1.62-1 .76-.9.9-.75 1-.6 1.1-.46 1.13-.3 1.1-.07h344.4l.76-.07.68-.16.66-.27.6-.37.54-.46.47-.54.37-.6.27-.66.15-.7.06-.76v-3.67h2.96zm0-57.06h-2.95v-10.5h2.96z" stroke="#000" stroke-width=".05"/><path d="M726.76 1251.54h-2.95V1250h2.96z"/><path stroke="#000" stroke-width=".05"/><path d="M380.18 1380.42l-11.28 19.53-11.28-19.53 2.56-1.48 7.24 12.55v-3h2.95v3l7.25-12.56z" stroke="#000" stroke-width=".05"/><path d="M635 1600h110v110H635v-110z" stroke="#000" stroke-opacity="0" fill="#dd344c"/><path d="M654.27 1681.05h71.46v-52.2h-71.46v52.2zm74.23-53.6v54.98c0 .75-.62 1.4-1.4 1.4h-74.2c-.78 0-1.4-.64-1.4-1.4v-54.97c0-.76.62-1.4 1.4-1.4h74.2c.78 0 1.4.64 1.4 1.4zm-33.03 38.47v-2.72h20.63v2.72h-20.63zm17.94-8.2v-2.78h6.86v2.78h-6.85zm-17.93 0v-2.78h11v2.78h-11zm-20.56 5.48c0-.75-.6-1.38-1.38-1.38-.77 0-1.38.63-1.38 1.38 0 .75.6 1.4 1.38 1.4.77 0 1.4-.65 1.4-1.4zm2.7 0c0 1.8-1.15 3.3-2.7 3.87v3h-2.76v-3c-1.62-.58-2.78-2.08-2.78-3.87 0-2.3 1.85-4.15 4.16-4.15 2.24 0 4.08 1.84 4.08 4.15zm-16.48 10.98h24.72v-5.5h-5.47v-2.76h5.47v-4.1h-5.47v-2.77h5.47v-4.1h-24.72v19.23zm4.16-22l16.48.05v-9.64c0-3.2-3.85-5.96-8.24-5.96-4.4 0-8.24 2.77-8.24 5.95v9.57zm-6.93 23.38v-22c0-.35.16-.7.47-.98.23-.23.6-.4.92-.4h2.77v-9.6c0-4.8 4.94-8.7 11.02-8.7 6 0 11 3.9 11 8.7v9.65h2.7c.78 0 1.4.58 1.4 1.33v22c0 .35-.16.75-.4.98-.3.24-.6.4-1 .4h-27.48c-.77 0-1.4-.63-1.4-1.38zm59.14-26.1v-2.77h2.76v2.76h-2.77zm-22.03 0v-2.77h15.17v2.76h-15.17z" stroke="#000" stroke-opacity="0" fill="#fff"/><g><use xlink:href="#v" transform="matrix(1,0,0,1,605,1719) translate(17.508680555555557 21.52777777777778)"/><use xlink:href="#w" transform="matrix(1,0,0,1,605,1719) translate(73.98654513888889 21.52777777777778)"/><use xlink:href="#x" transform="matrix(1,0,0,1,605,1719) translate(23.699001736111114 53.79340277777778)"/><use xlink:href="#y" transform="matrix(1,0,0,1,605,1719) translate(69.16341145833333 53.79340277777778)"/><use xlink:href="#z" transform="matrix(1,0,0,1,605,1719) translate(16.21744791666667 86.05902777777777)"/><use xlink:href="#A" transform="matrix(1,0,0,1,605,1719) translate(56.20768229166667 118.32465277777777)"/></g><path d="M746.5 1655H1034a6 6 0 0 0 6-6v-77.67" stroke="#000" stroke-width="3" fill="none"/><path d="M746.54 1656.47H745v-2.94h1.54z" stroke="#000" stroke-width=".05"/><path d="M1030 1580.32l10-17.32 10 17.32m-10-17.32v8.5M633.5 1655H346a6 6 0 0 1-6-6v-77.67" stroke="#000" stroke-width="3" fill="none"/><path d="M635 1656.47h-1.54v-2.94H635z" stroke="#000" stroke-width=".05"/><path d="M330 1580.32l10-17.32 10 17.32M340 1563v8.5" stroke="#000" stroke-width="3" fill="none"/><defs><path d="M600 0L52-1490h200c166 485 304 806 458 1336 156-533 285-846 449-1336h202L819 0H600" id="B"/><path d="M180 0v-1490h510c348 0 508 209 508 474 0 266-160 477-507 477H370V0H180zm190-706h312c236 0 327-133 327-310 0-176-91-307-329-307H370v617" id="C"/><path d="M783 20c-382 0-661-292-661-764 0-473 279-766 661-766 302 0 548 182 601 489h-190c-42-204-217-313-411-313-268 0-476 208-476 590 0 381 209 588 476 588 195 0 369-110 411-313h190c-52 303-296 489-601 489" id="D"/><g id="a"><use transform="matrix(0.010850694444444444,0,0,0.010850694444444444,0,0)" xlink:href="#B"/><use transform="matrix(0.010850694444444444,0,0,0.010850694444444444,15.33203125,0)" xlink:href="#C"/><use transform="matrix(0.010850694444444444,0,0,0.010850694444444444,29.524739583333332,0)" xlink:href="#D"/></g><path d="M52 0l541-1490h220L1361 0h-200l-149-416H398L254 0H52zm404-582h497c-103-290-145-390-251-756-108 377-145 460-246 756" id="E"/><path d="M481 0L54-1118h197c107 314 236 620 325 951 87-331 217-637 324-951h197L670 0H481" id="F"/><path d="M471 26C259 26 90-98 90-318c0-256 228-303 435-329 202-27 287-16 287-108 0-139-79-219-234-219-161 0-248 86-283 164l-173-57c86-203 278-265 451-265 150 0 419 46 419 395V0H815v-152h-12C765-73 660 26 471 26zm31-159c199 0 310-134 310-271v-155c-30 35-226 55-295 64-131 17-246 59-246 186 0 116 97 176 231 176" id="G"/><path d="M158 0v-1118h180V0H158zm91-1301c-68 0-125-53-125-119s57-119 125-119c69 0 126 53 126 119s-57 119-126 119" id="H"/><path d="M338-1490V0H158v-1490h180" id="I"/><path d="M677 24c-213 0-288-135-325-197h-20V0H158v-1490h180v551h14c37-59 106-193 324-193 279 0 474 222 474 576 0 356-194 580-473 580zm-27-161c209 0 317-186 317-421 0-232-105-413-317-413-206 0-314 166-314 413 0 249 111 421 314 421" id="J"/><path d="M598-1118v154H368v674c0 100 37 144 132 144 23 0 62-6 92-12L629-6c-37 13-88 20-134 20-193 0-307-107-307-290v-688H20v-154h168v-266h180v266h230" id="K"/><path d="M140 405l46-156c120 36 205 19 263-150l32-93L54-1118h197c107 313 237 620 324 950 87-331 219-637 326-950h196L606 167c-68 178-176 259-334 259-64 0-113-12-132-21" id="L"/><g id="b"><use transform="matrix(0.010850694444444444,0,0,0.010850694444444444,0,0)" xlink:href="#E"/><use transform="matrix(0.010850694444444444,0,0,0.010850694444444444,13.823784722222221,0)" xlink:href="#F"/><use transform="matrix(0.010850694444444444,0,0,0.010850694444444444,26.204427083333332,0)" xlink:href="#G"/><use transform="matrix(0.010850694444444444,0,0,0.010850694444444444,38.68272569444444,0)" xlink:href="#H"/><use transform="matrix(0.010850694444444444,0,0,0.010850694444444444,44.064670138888886,0)" xlink:href="#I"/><use transform="matrix(0.010850694444444444,0,0,0.010850694444444444,49.44661458333333,0)" xlink:href="#G"/><use transform="matrix(0.010850694444444444,0,0,0.010850694444444444,61.92491319444444,0)" xlink:href="#J"/><use transform="matrix(0.010850694444444444,0,0,0.010850694444444444,75.53168402777777,0)" xlink:href="#H"/><use transform="matrix(0.010850694444444444,0,0,0.010850694444444444,80.91362847222221,0)" xlink:href="#I"/><use transform="matrix(0.010850694444444444,0,0,0.010850694444444444,86.29557291666666,0)" xlink:href="#H"/><use transform="matrix(0.010850694444444444,0,0,0.010850694444444444,91.67751736111111,0)" xlink:href="#K"/><use transform="matrix(0.010850694444444444,0,0,0.010850694444444444,99.38151041666664,0)" xlink:href="#L"/></g><path d="M130 0v-134l666-991c45-67 96-135 147-202-269 9-546 3-821 5v-168h1036v136L502-379c-49 72-103 145-157 216 268-9 546-3 821-5V0H130" id="M"/><path d="M613 24c-304 0-509-231-509-576 0-350 205-580 509-580 305 0 511 230 511 580 0 345-206 576-511 576zm0-161c226 0 329-195 329-415 0-222-103-419-329-419-223 0-326 196-326 419 0 220 103 415 326 415" id="N"/><path d="M338-670V0H158v-1118h173l1 207c72-158 192-221 342-221 226 0 378 139 378 422V0H872v-695c0-172-96-275-252-275-161 0-282 109-282 300" id="O"/><path d="M628 24c-324 0-524-230-524-574 0-343 198-582 503-582 237 0 487 146 487 559v75H286c9 234 145 362 343 362 132 0 231-58 273-172l174 48C1024-91 857 24 628 24zM287-650h624c-17-190-120-322-304-322-192 0-309 151-320 322" id="P"/><g id="c"><use transform="matrix(0.010850694444444444,0,0,0.010850694444444444,0,0)" xlink:href="#M"/><use transform="matrix(0.010850694444444444,0,0,0.010850694444444444,13.975694444444445,0)" xlink:href="#N"/><use transform="matrix(0.010850694444444444,0,0,0.010850694444444444,27.30034722222222,0)" xlink:href="#O"/><use transform="matrix(0.010850694444444444,0,0,0.010850694444444444,40.4296875,0)" xlink:href="#P"/></g><path d="M537 14c-226 0-379-139-379-422v-710h180v695c0 172 97 275 253 275 160 0 281-109 281-300v-670h181V0H879v-209C806-46 684 14 537 14" id="Q"/><path d="M613 24c-304 0-509-231-509-576 0-350 205-580 509-580 216 0 392 114 453 309l-173 49c-33-115-133-197-280-197-223 0-326 196-326 419 0 220 103 415 326 415 150 0 252-85 285-206l172 49C1010-95 832 24 613 24" id="R"/><g id="d"><use transform="matrix(0.010850694444444444,0,0,0.010850694444444444,0,0)" xlink:href="#C"/><use transform="matrix(0.010850694444444444,0,0,0.010850694444444444,14.192708333333332,0)" xlink:href="#Q"/><use transform="matrix(0.010850694444444444,0,0,0.010850694444444444,27.332899305555554,0)" xlink:href="#J"/><use transform="matrix(0.010850694444444444,0,0,0.010850694444444444,40.939670138888886,0)" xlink:href="#I"/><use transform="matrix(0.010850694444444444,0,0,0.010850694444444444,46.32161458333333,0)" xlink:href="#H"/><use transform="matrix(0.010850694444444444,0,0,0.010850694444444444,51.70355902777778,0)" xlink:href="#R"/></g><path d="M538 24C308 24 148-78 108-271l171-41c32 123 123 178 257 178 156 0 256-77 256-169 0-77-54-128-164-154l-186-44c-203-48-300-148-300-305 0-192 176-326 414-326 230 0 351 112 402 269l-163 42c-31-80-94-158-238-158-133 0-233 69-233 162 0 83 57 129 188 160l169 40c203 48 298 149 298 302 0 196-179 339-441 339" id="S"/><g id="e"><use transform="matrix(0.010850694444444444,0,0,0.010850694444444444,0,0)" xlink:href="#S"/><use transform="matrix(0.010850694444444444,0,0,0.010850694444444444,11.729600694444445,0)" xlink:href="#Q"/><use transform="matrix(0.010850694444444444,0,0,0.010850694444444444,24.869791666666664,0)" xlink:href="#J"/><use transform="matrix(0.010850694444444444,0,0,0.010850694444444444,38.4765625,0)" xlink:href="#O"/><use transform="matrix(0.010850694444444444,0,0,0.010850694444444444,51.60590277777778,0)" xlink:href="#P"/><use transform="matrix(0.010850694444444444,0,0,0.010850694444444444,64.56163194444444,0)" xlink:href="#K"/></g><path d="M180 0v-1490h510c348 0 508 194 508 460 0 198-88 351-276 417L1256 0h-220L726-579c-117 2-238 0-356 1V0H180zm190-747h312c235 0 327-108 327-283 0-177-92-293-329-293H370v576" id="T"/><path d="M611 442c-248 0-391-105-460-228l146-94c47 65 117 165 314 165 178 0 307-82 307-266v-224h-17C863-141 792-18 576-18c-268 0-472-195-472-546 0-346 197-568 476-568 216 0 288 133 326 193h17v-179h175V29c0 289-215 413-487 413zm-5-620c203 0 314-146 314-390 0-237-108-403-314-403-213 0-319 180-319 403 0 230 109 390 319 390" id="U"/><g id="f"><use transform="matrix(0.010850694444444444,0,0,0.010850694444444444,0,0)" xlink:href="#T"/><use transform="matrix(0.010850694444444444,0,0,0.010850694444444444,13.975694444444445,0)" xlink:href="#P"/><use transform="matrix(0.010850694444444444,0,0,0.010850694444444444,26.931423611111104,0)" xlink:href="#U"/><use transform="matrix(0.010850694444444444,0,0,0.010850694444444444,40.55989583333333,0)" xlink:href="#H"/><use transform="matrix(0.010850694444444444,0,0,0.010850694444444444,45.94184027777778,0)" xlink:href="#N"/><use transform="matrix(0.010850694444444444,0,0,0.010850694444444444,59.26649305555555,0)" xlink:href="#O"/></g><g id="g"><use transform="matrix(0.010850694444444444,0,0,0.010850694444444444,0,0)" xlink:href="#E"/><use transform="matrix(0.010850694444444444,0,0,0.010850694444444444,15.33203125,0)" xlink:href="#Q"/><use transform="matrix(0.010850694444444444,0,0,0.010850694444444444,28.47222222222222,0)" xlink:href="#K"/><use transform="matrix(0.010850694444444444,0,0,0.010850694444444444,35.52517361111111,0)" xlink:href="#N"/></g><path d="M657 26c-323 0-524-166-541-416h195c15 169 171 246 346 246 202 0 356-106 356-265 5-203-294-238-475-293-239-73-380-191-380-389 0-252 224-419 512-419 294 0 499 171 508 396H992c-17-145-151-228-328-228-193 0-321 102-321 242 0 156 175 211 284 241l149 41c160 44 422 134 422 412 0 244-197 432-541 432" id="V"/><g id="h"><use transform="matrix(0.010850694444444444,0,0,0.010850694444444444,0,0)" xlink:href="#V"/><use transform="matrix(0.010850694444444444,0,0,0.010850694444444444,14.2578125,0)" xlink:href="#R"/><use transform="matrix(0.010850694444444444,0,0,0.010850694444444444,27.17013888888889,0)" xlink:href="#G"/><use transform="matrix(0.010850694444444444,0,0,0.010850694444444444,39.6484375,0)" xlink:href="#I"/><use transform="matrix(0.010850694444444444,0,0,0.010850694444444444,45.03038194444444,0)" xlink:href="#H"/><use transform="matrix(0.010850694444444444,0,0,0.010850694444444444,50.412326388888886,0)" xlink:href="#O"/><use transform="matrix(0.010850694444444444,0,0,0.010850694444444444,63.541666666666664,0)" xlink:href="#U"/></g><path d="M158 0v-1118h174v172h12c41-113 157-188 290-188 26 0 70 2 91 3v181c-11-2-60-10-108-10-161 0-279 109-279 260V0H158" id="W"/><path d="M158 418v-1536h174v179h20c37-59 106-193 324-193 279 0 474 222 474 576 0 356-194 580-473 580-213 0-288-135-325-197h-14v591H158zm492-555c209 0 317-186 317-421 0-232-105-413-317-413-206 0-314 166-314 413 0 249 111 421 314 421" id="X"/><g id="i"><use transform="matrix(0.010850694444444444,0,0,0.010850694444444444,0,0)" xlink:href="#U"/><use transform="matrix(0.010850694444444444,0,0,0.010850694444444444,13.628472222222221,0)" xlink:href="#W"/><use transform="matrix(0.010850694444444444,0,0,0.010850694444444444,21.62543402777778,0)" xlink:href="#N"/><use transform="matrix(0.010850694444444444,0,0,0.010850694444444444,34.95008680555556,0)" xlink:href="#Q"/><use transform="matrix(0.010850694444444444,0,0,0.010850694444444444,48.09027777777778,0)" xlink:href="#X"/></g><g id="j"><use transform="matrix(0.010850694444444444,0,0,0.010850694444444444,0,0)" xlink:href="#V"/><use transform="matrix(0.010850694444444444,0,0,0.010850694444444444,14.2578125,0)" xlink:href="#P"/><use transform="matrix(0.010850694444444444,0,0,0.010850694444444444,27.213541666666664,0)" xlink:href="#R"/><use transform="matrix(0.010850694444444444,0,0,0.010850694444444444,39.908854166666664,0)" xlink:href="#Q"/><use transform="matrix(0.010850694444444444,0,0,0.010850694444444444,53.049045138888886,0)" xlink:href="#W"/><use transform="matrix(0.010850694444444444,0,0,0.010850694444444444,61.76215277777778,0)" xlink:href="#H"/><use transform="matrix(0.010850694444444444,0,0,0.010850694444444444,67.14409722222221,0)" xlink:href="#K"/><use transform="matrix(0.010850694444444444,0,0,0.010850694444444444,74.84809027777776,0)" xlink:href="#L"/></g><path d="M180 0v-1490h190v1322h690V0H180" id="Y"/><path d="M180 0v-1490h528c311 0 458 177 458 395 0 191-114 278-244 313v14c139 9 302 137 302 371 0 225-148 397-499 397H180zm190-168h350c232 0 321-102 321-231 0-149-120-277-311-277H370v508zm0-668h328c160 0 286-101 286-255 0-129-87-231-280-231H370v486" id="Z"/><g id="k"><use transform="matrix(0.010850694444444444,0,0,0.010850694444444444,0,0)" xlink:href="#E"/><use transform="matrix(0.010850694444444444,0,0,0.010850694444444444,15.33203125,0)" xlink:href="#Y"/><use transform="matrix(0.010850694444444444,0,0,0.010850694444444444,27.897135416666664,0)" xlink:href="#Z"/></g><path d="M180 0v-1490h908v168H370v486h669v168H370v500h727V0H180" id="aa"/><path d="M154 0v-137l495-537c165-179 249-281 249-418 0-156-121-253-280-253-170 0-278 110-278 278H158c0-264 200-443 465-443 266 0 455 183 455 416 0 161-73 288-336 568L416-179v12h687V0H154" id="ab"/><g id="l"><use transform="matrix(0.010850694444444444,0,0,0.010850694444444444,0,0)" xlink:href="#aa"/><use transform="matrix(0.010850694444444444,0,0,0.010850694444444444,13.35720486111111,0)" xlink:href="#D"/><use transform="matrix(0.010850694444444444,0,0,0.010850694444444444,29.58984375,0)" xlink:href="#ab"/></g><path d="M370-1490V0H180v-1490h190" id="ac"/><g id="m"><use transform="matrix(0.010850694444444444,0,0,0.010850694444444444,0,0)" xlink:href="#ac"/><use transform="matrix(0.010850694444444444,0,0,0.010850694444444444,5.967881944444445,0)" xlink:href="#O"/><use transform="matrix(0.010850694444444444,0,0,0.010850694444444444,19.09722222222222,0)" xlink:href="#S"/><use transform="matrix(0.010850694444444444,0,0,0.010850694444444444,30.826822916666664,0)" xlink:href="#K"/><use transform="matrix(0.010850694444444444,0,0,0.010850694444444444,38.205295138888886,0)" xlink:href="#G"/><use transform="matrix(0.010850694444444444,0,0,0.010850694444444444,50.68359375,0)" xlink:href="#O"/><use transform="matrix(0.010850694444444444,0,0,0.010850694444444444,63.81293402777778,0)" xlink:href="#R"/><use transform="matrix(0.010850694444444444,0,0,0.010850694444444444,76.50824652777777,0)" xlink:href="#P"/></g><g id="n"><use transform="matrix(0.010850694444444444,0,0,0.010850694444444444,0,0)" xlink:href="#D"/><use transform="matrix(0.010850694444444444,0,0,0.010850694444444444,16.23263888888889,0)" xlink:href="#I"/><use transform="matrix(0.010850694444444444,0,0,0.010850694444444444,21.614583333333336,0)" xlink:href="#H"/><use transform="matrix(0.010850694444444444,0,0,0.010850694444444444,26.99652777777778,0)" xlink:href="#P"/><use transform="matrix(0.010850694444444444,0,0,0.010850694444444444,39.95225694444444,0)" xlink:href="#O"/><use transform="matrix(0.010850694444444444,0,0,0.010850694444444444,53.08159722222222,0)" xlink:href="#K"/></g><g id="o"><use transform="matrix(0.010850694444444444,0,0,0.010850694444444444,0,0)" xlink:href="#ac"/><use transform="matrix(0.010850694444444444,0,0,0.010850694444444444,5.967881944444445,0)" xlink:href="#O"/><use transform="matrix(0.010850694444444444,0,0,0.010850694444444444,19.09722222222222,0)" xlink:href="#K"/><use transform="matrix(0.010850694444444444,0,0,0.010850694444444444,26.15017361111111,0)" xlink:href="#P"/><use transform="matrix(0.010850694444444444,0,0,0.010850694444444444,39.10590277777778,0)" xlink:href="#W"/><use transform="matrix(0.010850694444444444,0,0,0.010850694444444444,47.819010416666664,0)" xlink:href="#O"/><use transform="matrix(0.010850694444444444,0,0,0.010850694444444444,60.94835069444444,0)" xlink:href="#P"/><use transform="matrix(0.010850694444444444,0,0,0.010850694444444444,73.90407986111111,0)" xlink:href="#K"/></g><path d="M409 0L70-1118h191c89 329 165 560 243 925 75-353 154-601 240-925h192c85 325 161 564 235 922 77-354 157-598 244-922h191L1267 0h-179c-86-307-176-590-250-913C763-588 675-308 588 0H409" id="ad"/><g id="p"><use transform="matrix(0.010850694444444444,0,0,0.010850694444444444,0,0)" xlink:href="#U"/><use transform="matrix(0.010850694444444444,0,0,0.010850694444444444,13.628472222222221,0)" xlink:href="#G"/><use transform="matrix(0.010850694444444444,0,0,0.010850694444444444,26.106770833333332,0)" xlink:href="#K"/><use transform="matrix(0.010850694444444444,0,0,0.010850694444444444,33.15972222222222,0)" xlink:href="#P"/><use transform="matrix(0.010850694444444444,0,0,0.010850694444444444,45.71397569444444,0)" xlink:href="#ad"/><use transform="matrix(0.010850694444444444,0,0,0.010850694444444444,63.89973958333333,0)" xlink:href="#G"/><use transform="matrix(0.010850694444444444,0,0,0.010850694444444444,76.0525173611111,0)" xlink:href="#L"/></g><path d="M158 0v-1118h175l1 205c55-151 181-225 313-225 147 0 245 90 285 228 53-141 190-228 352-228 194 0 352 125 352 384V0h-181v-749c0-161-105-225-225-225-151 0-243 103-243 244V0H807v-767c0-124-93-207-219-207-131 0-250 92-250 270V0H158" id="ae"/><path d="M126 0v-134l627-806v-11H146v-167h839v143L376-178v11h629V0H126" id="af"/><g id="q"><use transform="matrix(0.010850694444444444,0,0,0.010850694444444444,0,0)" xlink:href="#E"/><use transform="matrix(0.010850694444444444,0,0,0.010850694444444444,15.33203125,0)" xlink:href="#ae"/><use transform="matrix(0.010850694444444444,0,0,0.010850694444444444,34.79817708333333,0)" xlink:href="#G"/><use transform="matrix(0.010850694444444444,0,0,0.010850694444444444,47.27647569444444,0)" xlink:href="#af"/><use transform="matrix(0.010850694444444444,0,0,0.010850694444444444,59.22309027777778,0)" xlink:href="#N"/><use transform="matrix(0.010850694444444444,0,0,0.010850694444444444,72.54774305555554,0)" xlink:href="#O"/></g><path d="M577 24c-279 0-473-224-473-580 0-354 195-576 474-576 218 0 287 134 324 193h14v-551h180V0H922v-173h-20C865-111 790 24 577 24zm27-161c203 0 314-172 314-421 0-247-108-413-314-413-212 0-317 181-317 413 0 235 108 421 317 421" id="ag"/><path d="M458 0L52-1490h194c108 439 233 855 324 1313 92-459 221-873 331-1313h216c110 438 234 854 330 1307 92-455 216-869 323-1307h196L1558 0h-221l-256-944c-26-95-50-200-73-331-22 122-44 223-73 331L680 0H458" id="ah"/><path d="M338-670V0H158v-1490h180v566c73-149 190-208 336-208 226 0 379 139 379 422V0H872v-695c0-172-96-275-252-275-161 0-282 109-282 300" id="ai"/><g id="r"><use transform="matrix(0.010850694444444444,0,0,0.010850694444444444,0,0)" xlink:href="#D"/><use transform="matrix(0.010850694444444444,0,0,0.010850694444444444,16.23263888888889,0)" xlink:href="#I"/><use transform="matrix(0.010850694444444444,0,0,0.010850694444444444,21.614583333333336,0)" xlink:href="#N"/><use transform="matrix(0.010850694444444444,0,0,0.010850694444444444,34.939236111111114,0)" xlink:href="#Q"/><use transform="matrix(0.010850694444444444,0,0,0.010850694444444444,48.07942708333333,0)" xlink:href="#ag"/><use transform="matrix(0.010850694444444444,0,0,0.010850694444444444,61.68619791666667,0)" xlink:href="#ah"/><use transform="matrix(0.010850694444444444,0,0,0.010850694444444444,82.45442708333334,0)" xlink:href="#G"/><use transform="matrix(0.010850694444444444,0,0,0.010850694444444444,94.93272569444446,0)" xlink:href="#K"/><use transform="matrix(0.010850694444444444,0,0,0.010850694444444444,101.98567708333334,0)" xlink:href="#R"/><use transform="matrix(0.010850694444444444,0,0,0.010850694444444444,114.68098958333334,0)" xlink:href="#ai"/></g><path d="M218-607c0-325 108-727 258-974h175c-155 315-250 682-250 974 0 265 78 531 250 886H476C306-10 218-315 218-607" id="aj"/><g id="t"><use transform="matrix(0.010850694444444444,0,0,0.010850694444444444,0,0)" xlink:href="#aj"/><use transform="matrix(0.010850694444444444,0,0,0.010850694444444444,8.10546875,0)" xlink:href="#E"/><use transform="matrix(0.010850694444444444,0,0,0.010850694444444444,23.4375,0)" xlink:href="#ae"/><use transform="matrix(0.010850694444444444,0,0,0.010850694444444444,42.90364583333333,0)" xlink:href="#G"/><use transform="matrix(0.010850694444444444,0,0,0.010850694444444444,55.38194444444444,0)" xlink:href="#af"/><use transform="matrix(0.010850694444444444,0,0,0.010850694444444444,67.32855902777777,0)" xlink:href="#N"/><use transform="matrix(0.010850694444444444,0,0,0.010850694444444444,80.65321180555554,0)" xlink:href="#O"/></g><path d="M180 0v-1490h224l606 953c40 63 108 177 176 312-27-437-7-821-13-1265h190V0h-226C860-448 622-778 356-1262c27 476 11 792 15 1262H180" id="ak"/><path d="M96 279C273-86 346-350 346-607c0-292-95-659-250-974h175c150 246 258 650 258 974 0 297-91 602-258 886H96" id="al"/><g id="u"><use transform="matrix(0.010850694444444444,0,0,0.010850694444444444,0,0)" xlink:href="#V"/><use transform="matrix(0.010850694444444444,0,0,0.010850694444444444,14.2578125,0)" xlink:href="#ak"/><use transform="matrix(0.010850694444444444,0,0,0.010850694444444444,31.000434027777775,0)" xlink:href="#V"/><use transform="matrix(0.010850694444444444,0,0,0.010850694444444444,45.25824652777778,0)" xlink:href="#al"/></g><g id="v"><use transform="matrix(0.010850694444444444,0,0,0.010850694444444444,0,0)" xlink:href="#E"/><use transform="matrix(0.010850694444444444,0,0,0.010850694444444444,14.073350694444445,0)" xlink:href="#ah"/><use transform="matrix(0.010850694444444444,0,0,0.010850694444444444,35.970052083333336,0)" xlink:href="#V"/></g><g id="w"><use transform="matrix(0.010850694444444444,0,0,0.010850694444444444,0,0)" xlink:href="#ac"/><use transform="matrix(0.010850694444444444,0,0,0.010850694444444444,5.967881944444445,0)" xlink:href="#ag"/><use transform="matrix(0.010850694444444444,0,0,0.010850694444444444,19.57465277777778,0)" xlink:href="#P"/><use transform="matrix(0.010850694444444444,0,0,0.010850694444444444,32.53038194444444,0)" xlink:href="#O"/><use transform="matrix(0.010850694444444444,0,0,0.010850694444444444,45.65972222222222,0)" xlink:href="#K"/><use transform="matrix(0.010850694444444444,0,0,0.010850694444444444,52.9296875,0)" xlink:href="#H"/><use transform="matrix(0.010850694444444444,0,0,0.010850694444444444,58.31163194444444,0)" xlink:href="#K"/><use transform="matrix(0.010850694444444444,0,0,0.010850694444444444,66.015625,0)" xlink:href="#L"/></g><g id="x"><use transform="matrix(0.010850694444444444,0,0,0.010850694444444444,0,0)" xlink:href="#G"/><use transform="matrix(0.010850694444444444,0,0,0.010850694444444444,12.47829861111111,0)" xlink:href="#O"/><use transform="matrix(0.010850694444444444,0,0,0.010850694444444444,25.60763888888889,0)" xlink:href="#ag"/></g><g id="y"><use transform="matrix(0.010850694444444444,0,0,0.010850694444444444,0,0)" xlink:href="#E"/><use transform="matrix(0.010850694444444444,0,0,0.010850694444444444,15.33203125,0)" xlink:href="#R"/><use transform="matrix(0.010850694444444444,0,0,0.010850694444444444,28.02734375,0)" xlink:href="#R"/><use transform="matrix(0.010850694444444444,0,0,0.010850694444444444,40.72265625,0)" xlink:href="#P"/><use transform="matrix(0.010850694444444444,0,0,0.010850694444444444,53.678385416666664,0)" xlink:href="#S"/><use transform="matrix(0.010850694444444444,0,0,0.010850694444444444,65.40798611111111,0)" xlink:href="#S"/></g><path d="M180 0v-1490h270l367 940c28 72 75 218 110 339 35-117 81-264 110-339l362-940h271V0h-187c2-448-5-837 7-1287-157 497-311 829-483 1287H842C666-458 514-784 354-1284c12 438 5 843 7 1284H180" id="am"/><g id="z"><use transform="matrix(0.010850694444444444,0,0,0.010850694444444444,0,0)" xlink:href="#am"/><use transform="matrix(0.010850694444444444,0,0,0.010850694444444444,20.07378472222222,0)" xlink:href="#G"/><use transform="matrix(0.010850694444444444,0,0,0.010850694444444444,32.55208333333333,0)" xlink:href="#O"/><use transform="matrix(0.010850694444444444,0,0,0.010850694444444444,45.68142361111111,0)" xlink:href="#G"/><use transform="matrix(0.010850694444444444,0,0,0.010850694444444444,58.15972222222221,0)" xlink:href="#U"/><use transform="matrix(0.010850694444444444,0,0,0.010850694444444444,71.78819444444443,0)" xlink:href="#P"/><use transform="matrix(0.010850694444444444,0,0,0.010850694444444444,84.7439236111111,0)" xlink:href="#ae"/><use transform="matrix(0.010850694444444444,0,0,0.010850694444444444,104.21006944444441,0)" xlink:href="#P"/><use transform="matrix(0.010850694444444444,0,0,0.010850694444444444,117.1657986111111,0)" xlink:href="#O"/><use transform="matrix(0.010850694444444444,0,0,0.010850694444444444,130.29513888888889,0)" xlink:href="#K"/></g><g id="A"><use transform="matrix(0.010850694444444444,0,0,0.010850694444444444,0,0)" xlink:href="#aj"/><use transform="matrix(0.010850694444444444,0,0,0.010850694444444444,8.10546875,0)" xlink:href="#ac"/><use transform="matrix(0.010850694444444444,0,0,0.010850694444444444,14.073350694444445,0)" xlink:href="#E"/><use transform="matrix(0.010850694444444444,0,0,0.010850694444444444,29.405381944444443,0)" xlink:href="#am"/><use transform="matrix(0.010850694444444444,0,0,0.010850694444444444,49.479166666666664,0)" xlink:href="#al"/></g></defs></g></svg>